<svg xmlns="http://www.w3.org/2000/svg" xmlns:xlink="http://www.w3.org/1999/xlink" width="500" zoomAndPan="magnify" viewBox="0 0 375 74.999997" height="100" preserveAspectRatio="xMidYMid meet" version="1.0"><defs><clipPath id="91fe70d8c5"><path d="M 22.019531 0 L 124 0 L 124 75 L 22.019531 75 Z M 22.019531 0 " clip-rule="nonzero"/></clipPath><clipPath id="bf36af21cd"><path d="M 65 36 L 352.769531 36 L 352.769531 65 L 65 65 Z M 65 36 " clip-rule="nonzero"/></clipPath></defs><g clip-path="url(#91fe70d8c5)"><path fill="#000000" d="M 113.28125 36.46875 C 118.308594 36.46875 121.683594 38.738281 123.75 41.5625 L 123.75 1.339844 C 123.75 0.582031 122.855469 0.0976562 122.238281 0.582031 L 72.574219 36.878906 L 73.882812 36.878906 C 79.050781 36.878906 81.667969 40.1875 81.667969 43.769531 C 81.667969 46.59375 80.21875 48.660156 78.222656 49.554688 C 77.878906 49.691406 77.878906 50.171875 78.222656 50.3125 C 80.496094 51.277344 82.148438 53.6875 82.148438 56.578125 C 82.148438 60.710938 79.464844 63.949219 74.296875 63.949219 L 60.175781 63.949219 C 59.902344 63.949219 59.625 63.742188 59.625 63.398438 L 59.625 46.316406 L 22.636719 73.386719 C 22.019531 73.9375 22.292969 74.902344 23.121094 74.902344 L 122.855469 74.902344 C 123.339844 74.902344 123.683594 74.554688 123.683594 74.074219 L 123.683594 60.367188 C 120.996094 62.847656 117.484375 64.429688 113.214844 64.429688 C 105.222656 64.429688 98.75 58.921875 98.75 50.449219 C 98.816406 41.910156 105.359375 36.46875 113.28125 36.46875 Z M 93.515625 63.46875 C 93.515625 63.742188 93.308594 63.949219 93.03125 63.949219 L 88.28125 63.949219 C 88.003906 63.949219 87.796875 63.742188 87.796875 63.46875 L 87.796875 37.363281 C 87.796875 37.085938 88.003906 36.878906 88.28125 36.878906 L 93.03125 36.878906 C 93.308594 36.878906 93.515625 37.085938 93.515625 37.363281 Z M 93.515625 63.46875 " fill-opacity="1" fill-rule="nonzero"/></g><g clip-path="url(#bf36af21cd)"><path fill="#000000" d="M 65.960938 47.625 L 72.644531 47.625 C 74.574219 47.625 75.8125 46.523438 75.8125 44.800781 C 75.8125 43.148438 74.574219 41.976562 72.644531 41.976562 L 65.6875 41.976562 C 65.550781 41.976562 65.410156 42.113281 65.410156 42.253906 L 65.410156 47.144531 C 65.410156 47.417969 65.6875 47.625 65.960938 47.625 Z M 65.960938 58.921875 L 72.917969 58.921875 C 75.054688 58.921875 76.363281 57.75 76.363281 55.820312 C 76.363281 54.101562 75.125 52.722656 72.917969 52.722656 L 65.960938 52.722656 C 65.6875 52.722656 65.410156 52.929688 65.410156 53.273438 L 65.410156 58.371094 C 65.410156 58.644531 65.6875 58.921875 65.960938 58.921875 Z M 119.414062 44.664062 C 118.105469 42.941406 115.898438 41.5625 113.28125 41.5625 C 108.324219 41.5625 104.742188 45.351562 104.742188 50.449219 C 104.742188 55.546875 108.324219 59.335938 113.28125 59.335938 C 115.554688 59.335938 117.691406 58.371094 118.863281 57.40625 C 118.929688 57.335938 119 57.199219 119 57.0625 L 119 54.445312 C 119 54.238281 118.792969 54.03125 118.585938 54.03125 L 112.457031 54.03125 C 112.113281 54.03125 111.90625 53.753906 111.90625 53.480469 L 111.90625 49.621094 C 111.90625 49.277344 112.179688 49.070312 112.457031 49.070312 L 123.820312 49.070312 L 123.820312 42.941406 L 120.171875 44.9375 C 119.894531 45.007812 119.550781 44.871094 119.414062 44.664062 Z M 128.023438 50.449219 C 128.023438 42.113281 134.015625 36.46875 141.730469 36.46875 C 146.757812 36.46875 149.996094 39.015625 151.921875 42.113281 C 152.0625 42.320312 151.992188 42.664062 151.714844 42.734375 L 148.617188 44.386719 C 148.410156 44.527344 148.136719 44.457031 148.066406 44.25 C 146.757812 42.183594 144.347656 40.667969 141.730469 40.667969 C 136.5625 40.667969 132.707031 44.730469 132.707031 50.449219 C 132.707031 56.097656 136.5625 60.230469 141.730469 60.230469 C 144.347656 60.230469 146.757812 58.714844 148.066406 56.648438 C 148.203125 56.441406 148.410156 56.371094 148.617188 56.511719 L 151.714844 58.09375 C 151.992188 58.230469 152.0625 58.507812 151.921875 58.785156 C 149.925781 61.882812 146.6875 64.5 141.730469 64.5 C 134.015625 64.429688 128.023438 58.714844 128.023438 50.449219 Z M 154.609375 50.449219 C 154.609375 43.699219 158.464844 38.464844 164.253906 36.949219 C 174.101562 34.332031 183.125 43.5625 180.988281 53.824219 C 179.679688 60.160156 174.652344 64.5 167.972656 64.5 C 160.121094 64.429688 154.609375 58.507812 154.609375 50.449219 Z M 176.582031 50.449219 C 176.582031 44.871094 173.136719 40.667969 167.902344 40.667969 C 162.597656 40.667969 159.222656 44.871094 159.222656 50.449219 C 159.222656 56.027344 162.597656 60.230469 167.902344 60.230469 C 173.207031 60.230469 176.582031 55.960938 176.582031 50.449219 Z M 209.367188 63.605469 L 209.367188 43.011719 L 201.171875 63.742188 C 201.171875 63.8125 201.035156 63.878906 200.964844 63.878906 L 199.242188 63.878906 C 199.171875 63.878906 199.035156 63.8125 199.035156 63.742188 L 190.769531 43.011719 L 190.769531 63.605469 C 190.769531 63.8125 190.632812 63.949219 190.425781 63.949219 L 186.292969 63.949219 C 186.085938 63.949219 185.949219 63.8125 185.949219 63.605469 L 185.949219 37.15625 C 185.949219 36.949219 186.085938 36.8125 186.292969 36.8125 L 192.21875 36.8125 C 192.492188 36.8125 192.699219 36.949219 192.835938 37.222656 L 200.070312 55.820312 L 207.234375 37.222656 C 207.300781 36.949219 207.578125 36.8125 207.851562 36.8125 L 213.777344 36.8125 C 213.984375 36.8125 214.121094 36.949219 214.121094 37.15625 L 214.121094 63.605469 C 214.121094 63.8125 213.984375 63.949219 213.777344 63.949219 L 209.644531 63.949219 C 209.574219 63.949219 209.367188 63.8125 209.367188 63.605469 Z M 256.203125 63.46875 L 256.203125 37.363281 C 256.203125 37.085938 256.410156 36.878906 256.6875 36.878906 L 274.25 36.878906 C 274.527344 36.878906 274.734375 37.085938 274.734375 37.363281 L 274.734375 40.53125 C 274.734375 40.804688 274.527344 41.011719 274.25 41.011719 L 261.441406 41.011719 C 261.164062 41.011719 260.957031 41.21875 260.957031 41.496094 L 260.957031 47.488281 C 260.957031 47.761719 261.164062 47.96875 261.441406 47.96875 L 273.976562 47.96875 C 274.25 47.96875 274.457031 48.175781 274.457031 48.453125 L 274.457031 51.621094 C 274.457031 51.894531 274.25 52.101562 273.976562 52.101562 L 261.441406 52.101562 C 261.164062 52.101562 260.957031 52.308594 260.957031 52.585938 L 260.957031 59.128906 C 260.957031 59.402344 261.164062 59.609375 261.441406 59.609375 L 274.25 59.609375 C 274.527344 59.609375 274.734375 59.816406 274.734375 60.09375 L 274.734375 63.261719 C 274.734375 63.535156 274.527344 63.742188 274.25 63.742188 L 256.6875 63.742188 C 256.410156 63.949219 256.203125 63.742188 256.203125 63.46875 Z M 296.773438 63.671875 L 291.058594 54.03125 C 290.988281 53.894531 290.78125 53.824219 290.644531 53.824219 L 286.648438 53.824219 C 286.375 53.824219 286.167969 54.03125 286.167969 54.304688 L 286.167969 63.46875 C 286.167969 63.742188 285.960938 63.949219 285.683594 63.949219 L 281.964844 63.949219 C 281.691406 63.949219 281.484375 63.742188 281.484375 63.46875 L 281.484375 37.363281 C 281.484375 37.085938 281.691406 36.878906 281.964844 36.878906 L 293.398438 36.878906 C 298.773438 36.878906 302.285156 40.324219 302.285156 45.351562 C 302.285156 49.828125 299.53125 52.378906 296.5 53.136719 C 296.15625 53.203125 296.015625 53.546875 296.15625 53.894531 C 297.257812 55.683594 300.699219 61.195312 302.007812 63.191406 C 302.214844 63.535156 302.007812 63.949219 301.597656 63.949219 L 297.257812 63.949219 C 297.050781 63.949219 296.914062 63.878906 296.773438 63.671875 Z M 297.394531 45.285156 C 297.394531 42.664062 295.464844 41.011719 292.78125 41.011719 L 286.71875 41.011719 C 286.441406 41.011719 286.234375 41.21875 286.234375 41.496094 L 286.234375 49.140625 C 286.234375 49.414062 286.441406 49.621094 286.71875 49.621094 L 292.78125 49.621094 C 295.464844 49.621094 297.394531 47.96875 297.394531 45.285156 Z M 334.382812 63.46875 L 334.382812 37.363281 C 334.382812 37.085938 334.589844 36.878906 334.863281 36.878906 L 352.496094 36.878906 C 352.773438 36.878906 352.980469 37.085938 352.980469 37.363281 L 352.980469 40.597656 C 352.980469 40.875 352.773438 41.082031 352.496094 41.082031 L 339.617188 41.082031 C 339.339844 41.082031 339.132812 41.289062 339.132812 41.5625 L 339.132812 47.625 C 339.132812 47.902344 339.339844 48.105469 339.617188 48.105469 L 352.152344 48.105469 C 352.429688 48.105469 352.636719 48.3125 352.636719 48.589844 L 352.636719 51.828125 C 352.636719 52.101562 352.429688 52.308594 352.152344 52.308594 L 339.617188 52.308594 C 339.339844 52.308594 339.132812 52.515625 339.132812 52.789062 L 339.132812 59.402344 C 339.132812 59.679688 339.339844 59.886719 339.617188 59.886719 L 352.496094 59.886719 C 352.773438 59.886719 352.980469 60.09375 352.980469 60.367188 L 352.980469 63.605469 C 352.980469 63.878906 352.773438 64.085938 352.496094 64.085938 L 334.863281 64.085938 C 334.589844 63.949219 334.382812 63.742188 334.382812 63.46875 Z M 305.730469 50.3125 C 305.730469 41.976562 311.722656 36.328125 319.433594 36.328125 C 324.464844 36.328125 327.699219 38.878906 329.628906 41.976562 C 329.765625 42.183594 329.699219 42.527344 329.421875 42.597656 L 326.324219 44.25 C 326.117188 44.386719 325.839844 44.320312 325.773438 44.113281 C 324.464844 42.046875 322.054688 40.53125 319.433594 40.53125 C 314.269531 40.53125 310.414062 44.59375 310.414062 50.3125 C 310.414062 55.960938 314.269531 60.09375 319.433594 60.09375 C 322.054688 60.09375 324.464844 58.578125 325.773438 56.511719 C 325.910156 56.304688 326.117188 56.234375 326.324219 56.371094 L 329.421875 57.957031 C 329.699219 58.09375 329.765625 58.371094 329.628906 58.644531 C 327.632812 61.746094 324.394531 64.363281 319.433594 64.363281 C 311.722656 64.292969 305.730469 58.644531 305.730469 50.3125 Z M 244.496094 63.605469 L 244.496094 43.011719 L 236.300781 63.742188 C 236.300781 63.8125 236.160156 63.878906 236.09375 63.878906 L 234.371094 63.878906 C 234.300781 63.878906 234.164062 63.8125 234.164062 63.742188 L 225.898438 43.011719 L 225.898438 63.605469 C 225.898438 63.8125 225.761719 63.949219 225.554688 63.949219 L 221.421875 63.949219 C 221.214844 63.949219 221.078125 63.8125 221.078125 63.605469 L 221.078125 37.15625 C 221.078125 36.949219 221.214844 36.8125 221.421875 36.8125 L 227.34375 36.8125 C 227.621094 36.8125 227.828125 36.949219 227.964844 37.222656 L 235.195312 55.820312 L 242.359375 37.222656 C 242.429688 36.949219 242.703125 36.8125 242.980469 36.8125 L 248.902344 36.8125 C 249.109375 36.8125 249.25 36.949219 249.25 37.15625 L 249.25 63.605469 C 249.25 63.8125 249.109375 63.949219 248.902344 63.949219 L 244.769531 63.949219 C 244.632812 63.949219 244.496094 63.8125 244.496094 63.605469 Z M 244.496094 63.605469 " fill-opacity="1" fill-rule="nonzero"/></g></svg>