<svg xmlns="http://www.w3.org/2000/svg" xmlns:xlink="http://www.w3.org/1999/xlink" width="500" zoomAndPan="magnify" viewBox="0 0 375 74.999997" height="100" preserveAspectRatio="xMidYMid meet" version="1.0"><defs><clipPath id="f7fda16c3a"><path d="M 53.832031 0 L 118 0 L 118 73 L 53.832031 73 Z M 53.832031 0 " clip-rule="nonzero"/></clipPath></defs><g clip-path="url(#f7fda16c3a)"><path fill="#000000" d="M 83.054688 3.105469 C 83.570312 3.105469 83.828125 3.363281 84.347656 3.621094 C 81.242188 4.914062 78.140625 8.277344 76.589844 15.519531 L 70.898438 17.070312 C 72.707031 11.898438 76.328125 3.105469 83.054688 3.105469 Z M 85.898438 5.691406 C 86.414062 7.242188 86.933594 9.054688 86.933594 11.898438 C 86.933594 12.15625 86.933594 12.15625 86.933594 12.414062 L 79.433594 14.484375 C 80.984375 9.054688 83.570312 6.726562 85.898438 5.691406 Z M 92.621094 10.347656 L 89.261719 11.378906 C 89.261719 11.121094 89.261719 10.863281 89.261719 10.605469 C 89.261719 8.277344 89 6.46875 88.484375 4.914062 C 90.292969 5.433594 91.847656 7.761719 92.621094 10.347656 Z M 109.429688 14.484375 C 109.429688 14.226562 109.171875 13.964844 108.914062 13.964844 C 108.398438 13.964844 102.964844 13.449219 102.964844 13.449219 C 102.964844 13.449219 99.085938 9.570312 98.570312 9.3125 C 98.050781 8.792969 97.277344 9.054688 97.019531 9.054688 C 97.019531 9.054688 96.242188 9.3125 94.949219 9.828125 C 93.65625 6.207031 91.328125 2.847656 87.449219 2.847656 C 87.449219 2.847656 87.191406 2.847656 87.191406 2.847656 C 86.15625 1.292969 84.605469 0.777344 83.3125 0.777344 C 74 0.519531 69.605469 12.15625 68.054688 18.105469 C 65.984375 18.621094 63.917969 19.398438 61.589844 20.171875 C 59.519531 20.691406 59.519531 20.949219 59.261719 22.757812 C 59.003906 24.050781 53.832031 64.914062 53.832031 64.914062 L 94.949219 72.671875 L 117.191406 67.757812 C 117.191406 67.757812 109.429688 15 109.429688 14.484375 Z M 109.429688 14.484375 " fill-opacity="1" fill-rule="nonzero"/></g><path fill="#000000" d="M 108.65625 13.964844 C 108.398438 13.964844 102.964844 13.449219 102.964844 13.449219 C 102.964844 13.449219 99.085938 9.570312 98.570312 9.3125 C 98.3125 9.054688 98.3125 9.054688 98.050781 9.054688 L 94.949219 72.671875 L 117.191406 67.757812 C 117.191406 67.757812 109.429688 15 109.429688 14.484375 C 109.429688 14.226562 108.914062 13.964844 108.65625 13.964844 " fill-opacity="1" fill-rule="nonzero"/><path fill="#fffffe" d="M 87.449219 26.378906 L 84.605469 34.65625 C 84.605469 34.65625 82.277344 33.363281 79.175781 33.363281 C 74.777344 33.363281 74.519531 35.949219 74.519531 36.722656 C 74.519531 40.34375 84.347656 41.894531 84.347656 50.6875 C 84.347656 57.671875 79.949219 62.066406 74 62.066406 C 67.019531 62.066406 63.398438 57.671875 63.398438 57.671875 L 65.210938 51.464844 C 65.210938 51.464844 68.828125 54.566406 71.933594 54.566406 C 74 54.566406 74.777344 53.015625 74.777344 51.722656 C 74.777344 46.808594 66.761719 46.550781 66.761719 38.535156 C 66.761719 31.8125 71.675781 25.34375 81.242188 25.34375 C 85.640625 25.085938 87.449219 26.378906 87.449219 26.378906 " fill-opacity="1" fill-rule="nonzero"/><path fill="#000000" d="M 143.308594 41.636719 C 140.980469 40.34375 139.949219 39.308594 139.949219 38.015625 C 139.949219 36.207031 141.5 35.171875 144.085938 35.171875 C 146.929688 35.171875 149.515625 36.464844 149.515625 36.464844 L 151.585938 30.257812 C 151.585938 30.257812 149.773438 28.707031 144.34375 28.707031 C 136.585938 28.707031 131.414062 33.105469 131.414062 39.308594 C 131.414062 42.929688 134 45.515625 137.101562 47.328125 C 139.6875 48.878906 140.722656 49.914062 140.722656 51.464844 C 140.722656 53.015625 139.429688 54.566406 136.84375 54.566406 C 133.222656 54.566406 129.601562 52.757812 129.601562 52.757812 L 127.535156 58.964844 C 127.535156 58.964844 130.636719 61.035156 136.066406 61.035156 C 143.828125 61.035156 149.515625 57.15625 149.515625 50.171875 C 149.515625 46.292969 146.671875 43.449219 143.308594 41.636719 M 174.601562 28.449219 C 170.722656 28.449219 167.617188 30.257812 165.289062 33.105469 L 168.652344 15.519531 L 159.859375 15.519531 L 151.324219 60.257812 L 160.117188 60.257812 L 162.964844 45 C 163.996094 39.308594 167.101562 35.691406 169.945312 35.691406 C 172.015625 35.691406 172.789062 36.984375 172.789062 39.050781 C 172.789062 40.34375 172.789062 41.636719 172.53125 42.929688 L 169.171875 60.515625 L 177.960938 60.515625 L 181.324219 42.414062 C 181.582031 40.601562 181.84375 38.277344 181.84375 36.722656 C 181.84375 31.550781 179.257812 28.449219 174.601562 28.449219 M 197.101562 54.050781 C 193.996094 54.050781 192.960938 51.464844 192.960938 48.363281 C 192.960938 43.449219 195.546875 35.171875 200.203125 35.171875 C 203.304688 35.171875 204.339844 37.757812 204.339844 40.34375 C 204.339844 46.035156 201.753906 54.050781 197.101562 54.050781 Z M 201.496094 28.449219 C 190.894531 28.449219 183.910156 38.015625 183.910156 48.621094 C 183.910156 55.34375 188.046875 60.773438 196.066406 60.773438 C 206.410156 60.773438 213.390625 51.464844 213.390625 40.601562 C 213.390625 34.398438 209.773438 28.449219 201.496094 28.449219 Z M 227.355469 54.308594 C 225.03125 54.308594 223.738281 53.015625 223.738281 53.015625 L 225.289062 44.742188 C 226.324219 39.308594 229.167969 35.691406 232.269531 35.691406 C 234.855469 35.691406 235.890625 38.277344 235.890625 40.601562 C 235.632812 46.292969 232.269531 54.308594 227.355469 54.308594 Z M 235.890625 28.449219 C 229.941406 28.449219 226.582031 33.621094 226.582031 33.621094 L 227.097656 28.964844 L 219.339844 28.964844 C 219.082031 32.070312 218.304688 36.984375 217.53125 40.601562 L 211.324219 72.671875 L 220.117188 72.671875 L 222.445312 59.742188 L 222.703125 59.742188 C 222.703125 59.742188 224.511719 60.773438 227.875 60.773438 C 238.21875 60.773438 244.941406 50.171875 244.941406 39.570312 C 244.941406 33.878906 242.355469 28.449219 235.890625 28.449219 Z M 257.355469 16.035156 C 254.511719 16.035156 252.441406 18.363281 252.441406 21.207031 C 252.441406 23.792969 253.992188 25.605469 256.582031 25.605469 C 259.425781 25.605469 261.753906 23.792969 261.753906 20.433594 C 261.753906 17.84375 259.941406 16.035156 257.355469 16.035156 M 245.203125 60.257812 L 253.992188 60.257812 L 259.941406 29.222656 L 251.148438 29.222656 Z M 282.183594 29.222656 L 275.976562 29.222656 L 276.234375 27.671875 C 276.75 24.570312 278.5625 21.984375 281.40625 21.984375 C 282.957031 21.984375 284.25 22.5 284.25 22.5 L 286.0625 15.519531 C 286.0625 15.519531 284.511719 14.742188 281.40625 14.742188 C 278.304688 14.742188 275.199219 15.519531 272.871094 17.585938 C 269.769531 20.171875 268.476562 23.792969 267.699219 27.414062 L 267.441406 28.964844 L 263.304688 28.964844 L 262.011719 35.691406 L 266.148438 35.691406 L 261.492188 60.257812 L 270.285156 60.257812 L 274.941406 35.691406 L 280.890625 35.691406 Z M 303.128906 29.222656 C 303.128906 29.222656 297.699219 42.929688 295.113281 50.429688 C 294.855469 48.101562 293.042969 29.222656 293.042969 29.222656 L 283.734375 29.222656 L 288.90625 57.671875 C 288.90625 58.1875 288.90625 58.707031 288.648438 59.222656 C 287.613281 61.292969 285.804688 63.101562 283.992188 64.394531 C 282.441406 65.6875 280.371094 66.464844 279.078125 66.980469 L 281.40625 74.480469 C 283.21875 74.222656 286.835938 72.671875 289.941406 69.824219 C 293.820312 66.207031 297.699219 60.257812 301.320312 52.5 L 311.921875 29.484375 Z M 303.128906 29.222656 " fill-opacity="1" fill-rule="nonzero"/></svg>