<svg xmlns="http://www.w3.org/2000/svg" xmlns:xlink="http://www.w3.org/1999/xlink" width="500" zoomAndPan="magnify" viewBox="0 0 375 74.999997" height="100" preserveAspectRatio="xMidYMid meet" version="1.0"><path fill="#000000" d="M 100.203125 6.25 L 68.238281 68.777344 L 38.210938 68.777344 L 51.589844 42.863281 L 50.988281 42.863281 C 39.953125 57.199219 23.484375 66.636719 0.0195312 68.777344 L 0.0195312 43.222656 C 0.0195312 43.222656 15.03125 42.335938 23.855469 33.054688 L 0.0195312 33.054688 L 0.0195312 6.25 L 26.808594 6.25 L 26.808594 28.296875 L 27.410156 28.292969 L 38.355469 6.25 L 58.613281 6.25 L 58.613281 28.15625 L 59.214844 28.15625 L 70.574219 6.25 Z M 100.203125 6.25 " fill-opacity="1" fill-rule="evenodd"/><path fill="#000000" d="M 274.527344 61.875 L 283.152344 61.875 L 283.152344 12.328125 L 274.527344 12.328125 Z M 274.527344 61.875 " fill-opacity="1" fill-rule="nonzero"/><path fill="#000000" d="M 226.964844 61.371094 C 228.839844 62.148438 230.746094 62.539062 232.6875 62.539062 C 235.886719 62.539062 238.753906 61.757812 241.28125 60.199219 C 243.808594 58.640625 245.769531 56.488281 247.160156 53.75 C 248.550781 50.988281 249.246094 47.859375 249.246094 44.359375 C 249.246094 40.859375 248.527344 37.730469 247.097656 34.96875 C 245.664062 32.207031 243.671875 30.066406 241.125 28.550781 C 238.574219 27.011719 235.675781 26.253906 232.433594 26.273438 C 230.367188 26.273438 228.386719 26.671875 226.492188 27.476562 C 224.597656 28.277344 223.015625 29.414062 221.75 30.890625 C 221.652344 31 221.558594 31.117188 221.46875 31.230469 L 221.46875 12.359375 L 212.808594 12.359375 L 212.808594 61.875 L 221.402344 61.875 L 221.386719 57.25 C 221.609375 57.523438 221.847656 57.789062 222.097656 58.050781 C 223.46875 59.460938 225.089844 60.570312 226.964844 61.371094 Z M 235.8125 53.371094 C 234.402344 54.234375 232.792969 54.667969 230.980469 54.667969 C 229.1875 54.667969 227.546875 54.222656 226.050781 53.339844 C 224.554688 52.433594 223.363281 51.199219 222.476562 49.640625 C 221.613281 48.078125 221.183594 46.308594 221.183594 44.328125 C 221.160156 42.347656 221.582031 40.574219 222.445312 39.015625 C 223.332031 37.433594 224.523438 36.210938 226.019531 35.347656 C 227.511719 34.460938 229.167969 34.03125 230.980469 34.050781 C 232.792969 34.03125 234.402344 34.453125 235.8125 35.316406 C 237.246094 36.160156 238.34375 37.371094 239.101562 38.953125 C 239.878906 40.511719 240.269531 42.304688 240.269531 44.328125 C 240.269531 46.351562 239.878906 48.144531 239.101562 49.703125 C 238.34375 51.261719 237.246094 52.484375 235.8125 53.371094 Z M 235.8125 53.371094 " fill-opacity="1" fill-rule="evenodd"/><path fill="#000000" d="M 112.703125 15.332031 L 122.5625 15.332031 L 131.382812 47.5625 L 140.765625 15.332031 L 148.980469 15.332031 L 159.15625 46.914062 L 167.625 15.332031 L 176.664062 15.332031 L 163.328125 61.875 L 154.828125 61.875 L 144.480469 31.023438 L 134.984375 61.875 L 126.386719 61.875 Z M 112.703125 15.332031 " fill-opacity="1" fill-rule="nonzero"/><path fill="#000000" d="M 191.226562 62.699219 C 187.789062 62.71875 184.695312 61.960938 181.933594 60.421875 C 179.195312 58.859375 177.035156 56.699219 175.457031 53.9375 C 173.898438 51.179688 173.117188 48.027344 173.117188 44.484375 C 173.117188 41.050781 173.917969 37.941406 175.519531 35.15625 C 177.121094 32.375 179.289062 30.203125 182.027344 28.644531 C 184.769531 27.085938 187.820312 26.304688 191.191406 26.304688 C 194.984375 26.304688 198.304688 27.148438 201.148438 28.835938 C 204.011719 30.519531 206.152344 32.914062 207.5625 36.011719 C 208.996094 39.089844 209.511719 42.621094 209.109375 46.605469 L 182.042969 46.605469 C 182.117188 48.191406 182.515625 49.636719 183.230469 50.933594 C 184.03125 52.367188 185.148438 53.484375 186.578125 54.285156 C 188.011719 55.089844 189.613281 55.488281 191.382812 55.488281 C 192.730469 55.46875 193.984375 55.234375 195.144531 54.792969 C 196.300781 54.328125 197.28125 53.707031 198.082031 52.925781 C 198.902344 52.148438 199.484375 51.261719 199.820312 50.273438 L 208.859375 50.273438 C 208.308594 52.695312 207.214844 54.855469 205.570312 56.753906 C 203.929688 58.628906 201.863281 60.09375 199.378906 61.148438 C 196.890625 62.203125 194.175781 62.71875 191.226562 62.699219 Z M 183.261719 37.910156 C 182.757812 38.789062 182.40625 39.738281 182.210938 40.753906 L 200.15625 40.753906 C 200.023438 39.46875 199.628906 38.300781 198.96875 37.246094 C 198.207031 36 197.175781 35.042969 195.871094 34.367188 C 194.5625 33.671875 193.089844 33.324219 191.445312 33.324219 C 189.699219 33.324219 188.105469 33.726562 186.675781 34.527344 C 185.242188 35.328125 184.105469 36.453125 183.261719 37.910156 Z M 183.261719 37.910156 " fill-opacity="1" fill-rule="evenodd"/><path fill="#000000" d="M 255.597656 27.03125 C 255.597656 24.207031 256.238281 21.699219 257.523438 19.507812 C 258.808594 17.292969 260.609375 15.574219 262.929688 14.351562 C 265.265625 13.109375 267.996094 12.464844 271.113281 12.425781 L 271.113281 20.109375 C 269.660156 20.128906 268.417969 20.433594 267.382812 21.023438 C 266.371094 21.59375 265.59375 22.425781 265.046875 23.523438 C 264.542969 24.53125 264.269531 25.703125 264.230469 27.03125 L 270.921875 27.03125 L 270.921875 34.335938 L 264.222656 34.335938 L 264.222656 61.875 L 255.597656 61.875 L 255.597656 34.335938 L 250.035156 34.335938 L 250.035156 27.03125 Z M 255.597656 27.03125 " fill-opacity="1" fill-rule="nonzero"/><path fill="#000000" d="M 305.085938 62.632812 C 301.566406 62.632812 298.417969 61.863281 295.636719 60.328125 C 292.875 58.765625 290.707031 56.617188 289.125 53.875 C 287.566406 51.113281 286.785156 47.984375 286.785156 44.484375 C 286.785156 40.964844 287.566406 37.824219 289.125 35.0625 C 290.707031 32.28125 292.875 30.121094 295.636719 28.582031 C 298.417969 27.042969 301.566406 26.273438 305.085938 26.273438 C 308.625 26.273438 311.785156 27.042969 314.5625 28.582031 C 317.367188 30.121094 319.546875 32.269531 321.105469 35.03125 C 322.664062 37.792969 323.453125 40.945312 323.476562 44.484375 C 323.453125 47.984375 322.664062 51.113281 321.105469 53.875 C 319.566406 56.617188 317.398438 58.765625 314.597656 60.328125 C 311.792969 61.863281 308.625 62.632812 305.085938 62.632812 Z M 305.085938 54.699219 C 306.9375 54.699219 308.582031 54.277344 310.015625 53.433594 C 311.445312 52.570312 312.550781 51.367188 313.332031 49.828125 C 314.113281 48.269531 314.5 46.488281 314.5 44.484375 C 314.5 42.460938 314.113281 40.671875 313.332031 39.109375 C 312.550781 37.550781 311.445312 36.347656 310.015625 35.503906 C 308.582031 34.640625 306.9375 34.210938 305.085938 34.210938 C 303.25 34.210938 301.617188 34.640625 300.1875 35.503906 C 298.773438 36.347656 297.679688 37.550781 296.898438 39.109375 C 296.121094 40.671875 295.742188 42.460938 295.761719 44.484375 C 295.761719 46.488281 296.152344 48.269531 296.929688 49.828125 C 297.730469 51.367188 298.828125 52.570312 300.21875 53.433594 C 301.628906 54.277344 303.25 54.699219 305.085938 54.699219 Z M 305.085938 54.699219 " fill-opacity="1" fill-rule="evenodd"/><path fill="#000000" d="M 332.796875 27.03125 L 323.191406 27.03125 L 333.589844 61.875 L 341.996094 61.875 L 348.832031 39.621094 L 356.214844 61.875 L 364.492188 61.875 L 374.921875 27.03125 L 366.234375 27.03125 L 360.316406 48.71875 L 353.78125 27.03125 L 345.375 27.03125 L 338.871094 49.199219 Z M 332.796875 27.03125 " fill-opacity="1" fill-rule="nonzero"/></svg>