<svg xmlns="http://www.w3.org/2000/svg" xmlns:xlink="http://www.w3.org/1999/xlink" width="500" zoomAndPan="magnify" viewBox="0 0 375 74.999997" height="100" preserveAspectRatio="xMidYMid meet" version="1.0"><defs><clipPath id="b57c9f73f6"><path d="M 93.144531 1 L 282.144531 1 L 282.144531 75 L 93.144531 75 Z M 93.144531 1 " clip-rule="nonzero"/></clipPath></defs><g clip-path="url(#b57c9f73f6)"><path fill="#000000" d="M 199.785156 2.660156 C 196.339844 4.464844 195.054688 7.511719 195.054688 15.933594 C 195.054688 15.933594 196.800781 14.246094 199.386719 13.304688 C 200.976562 12.710938 202.453125 11.910156 203.820312 10.902344 C 206.734375 8.769531 207.183594 6.023438 207.183594 1.398438 C 207.183594 1.398438 202.433594 1.269531 199.785156 2.65625 M 174.082031 11.800781 L 164.101562 50.609375 L 155.792969 18.847656 C 154.984375 15.472656 153.527344 11.296875 151.21875 8.472656 C 148.28125 4.875 142.308594 4.652344 141.675781 4.652344 C 141.035156 4.652344 135.0625 4.875 132.128906 8.472656 C 129.820312 11.296875 128.363281 15.476562 127.550781 18.847656 L 119.25 50.613281 L 109.265625 11.800781 C 109.265625 11.800781 108.382812 7.546875 105.371094 4.878906 C 100.476562 0.554688 93.144531 1.480469 93.144531 1.480469 L 112.265625 74.015625 C 112.265625 74.015625 118.574219 74.476562 121.726562 72.855469 C 125.871094 70.738281 127.84375 69.101562 130.355469 59.230469 C 132.59375 50.433594 138.847656 24.589844 139.429688 22.746094 C 139.71875 21.839844 140.082031 19.664062 141.675781 19.664062 C 143.300781 19.664062 143.636719 21.839844 143.917969 22.746094 C 144.492188 24.589844 150.753906 50.433594 152.992188 59.230469 C 155.5 69.101562 157.476562 70.738281 161.621094 72.855469 C 164.773438 74.472656 171.082031 74.015625 171.082031 74.015625 L 190.199219 1.480469 C 190.199219 1.480469 182.871094 0.554688 177.976562 4.878906 C 174.960938 7.546875 174.082031 11.800781 174.082031 11.800781 Z M 207.175781 13.511719 C 207.175781 13.511719 206.0625 15.359375 203.519531 16.882812 C 201.886719 17.863281 200.316406 18.523438 198.636719 19.390625 C 195.816406 20.839844 195.054688 22.453125 195.054688 24.917969 L 195.054688 73.960938 C 195.054688 73.960938 199.550781 74.570312 202.496094 72.964844 C 206.28125 70.894531 207.152344 68.898438 207.183594 59.914062 L 207.183594 16.125 L 207.175781 16.125 Z M 257.371094 37.753906 L 282.144531 1.785156 C 282.144531 1.785156 271.691406 0.046875 266.515625 4.648438 C 263.203125 7.589844 259.496094 12.886719 259.496094 12.886719 L 250.382812 25.710938 C 249.941406 26.378906 249.359375 27.105469 248.4375 27.105469 C 247.511719 27.105469 246.929688 26.378906 246.492188 25.710938 L 237.375 12.886719 C 237.375 12.886719 233.671875 7.589844 230.355469 4.648438 C 225.179688 0.046875 214.722656 1.785156 214.722656 1.785156 L 239.496094 37.753906 L 214.785156 73.609375 C 214.785156 73.609375 225.679688 74.953125 230.855469 70.351562 C 234.167969 67.40625 237.375 62.625 237.375 62.625 L 246.492188 49.796875 C 246.929688 49.128906 247.511719 48.402344 248.4375 48.402344 C 249.359375 48.402344 249.941406 49.128906 250.382812 49.796875 L 259.496094 62.621094 C 259.496094 62.621094 262.890625 67.40625 266.203125 70.351562 C 271.382812 74.953125 282.078125 73.609375 282.078125 73.609375 Z M 257.371094 37.753906 " fill-opacity="1" fill-rule="nonzero"/></g></svg>