<svg xmlns="http://www.w3.org/2000/svg" xmlns:xlink="http://www.w3.org/1999/xlink" width="500" zoomAndPan="magnify" viewBox="0 0 375 74.999997" height="100" preserveAspectRatio="xMidYMid meet" version="1.0"><defs><clipPath id="c2aeb6737a"><path d="M 27 1.425781 L 101 1.425781 L 101 74.925781 L 27 74.925781 Z M 27 1.425781 " clip-rule="nonzero"/></clipPath></defs><path fill="#000000" d="M 213.152344 30.09375 L 200.582031 30.09375 L 200.582031 31.425781 C 204.511719 31.425781 205.144531 32.269531 205.144531 37.257812 L 205.144531 46.246094 C 205.144531 51.234375 204.511719 52.148438 200.582031 52.148438 C 197.558594 51.726562 195.523438 50.109375 192.714844 47.019531 L 189.484375 43.507812 C 193.835938 42.734375 196.15625 39.996094 196.15625 36.90625 C 196.15625 33.042969 192.855469 30.09375 186.671875 30.09375 L 174.308594 30.09375 L 174.308594 31.425781 C 178.242188 31.425781 178.875 32.269531 178.875 37.257812 L 178.875 46.246094 C 178.875 51.234375 178.242188 52.148438 174.308594 52.148438 L 174.308594 53.484375 L 188.289062 53.484375 L 188.289062 52.148438 C 184.355469 52.148438 183.722656 51.234375 183.722656 46.246094 L 183.722656 43.71875 L 184.917969 43.71875 L 192.714844 53.484375 L 213.152344 53.484375 C 223.199219 53.484375 227.554688 48.144531 227.554688 41.753906 C 227.554688 35.359375 223.199219 30.09375 213.152344 30.09375 Z M 183.722656 41.539062 L 183.722656 32.199219 L 186.601562 32.199219 C 189.761719 32.199219 191.167969 34.378906 191.167969 36.90625 C 191.167969 39.363281 189.761719 41.542969 186.601562 41.542969 L 183.722656 41.542969 Z M 213.363281 51.304688 L 212.871094 51.304688 C 210.34375 51.304688 209.992188 50.671875 209.992188 47.441406 L 209.992188 32.199219 L 213.363281 32.199219 C 220.667969 32.199219 222.003906 37.539062 222.003906 41.683594 C 222.003906 45.964844 220.667969 51.304688 213.363281 51.304688 Z M 135.1875 44.140625 L 140.035156 29.8125 C 141.4375 25.667969 140.808594 24.472656 136.3125 24.472656 L 136.3125 23.066406 L 149.515625 23.066406 L 149.515625 24.472656 C 145.09375 24.472656 144.039062 25.527344 142.28125 30.65625 L 134.273438 54.675781 L 133.359375 54.675781 L 126.195312 32.691406 L 118.890625 54.675781 L 117.976562 54.675781 L 110.183594 30.65625 C 108.496094 25.527344 107.371094 24.472656 103.296875 24.472656 L 103.296875 23.066406 L 118.890625 23.066406 L 118.890625 24.472656 C 114.746094 24.472656 113.621094 25.457031 115.097656 29.8125 L 119.804688 44.140625 L 126.898438 23.066406 L 128.234375 23.066406 Z M 159.066406 54.394531 C 151.34375 54.394531 145.019531 48.707031 145.019531 41.75 C 145.019531 34.867188 151.34375 29.179688 159.066406 29.179688 C 166.796875 29.179688 173.117188 34.867188 173.117188 41.75 C 173.117188 48.707031 166.796875 54.394531 159.066406 54.394531 Z M 159.066406 31.355469 C 152.605469 31.355469 150.359375 37.1875 150.359375 41.753906 C 150.359375 46.390625 152.605469 52.148438 159.066406 52.148438 C 165.601562 52.148438 167.847656 46.390625 167.847656 41.753906 C 167.847656 37.1875 165.601562 31.355469 159.066406 31.355469 Z M 159.066406 31.355469 " fill-opacity="1" fill-rule="nonzero"/><path fill="#000000" d="M 244.902344 52.078125 L 244.902344 53.484375 L 228.816406 53.484375 L 228.816406 52.078125 C 233.523438 52.078125 234.367188 50.882812 234.367188 43.859375 L 234.367188 32.621094 C 234.367188 25.597656 233.523438 24.472656 228.816406 24.472656 L 228.816406 23.066406 L 243.355469 23.066406 C 250.589844 23.066406 254.59375 26.789062 254.59375 31.777344 C 254.59375 36.625 250.589844 40.417969 243.355469 40.417969 L 239.351562 40.417969 L 239.351562 43.859375 C 239.351562 50.882812 240.195312 52.078125 244.902344 52.078125 Z M 243.355469 25.597656 L 239.351562 25.597656 L 239.351562 37.820312 L 243.355469 37.820312 C 247.289062 37.820312 249.117188 35.078125 249.117188 31.777344 C 249.117188 28.40625 247.289062 25.597656 243.355469 25.597656 Z M 302.851562 46.878906 L 302.5 48.144531 C 301.867188 50.460938 301.09375 51.304688 296.105469 51.304688 L 295.121094 51.304688 C 291.46875 51.304688 290.839844 50.460938 290.839844 45.476562 L 290.839844 42.246094 C 296.316406 42.246094 296.738281 42.734375 296.738281 46.390625 L 298.074219 46.390625 L 298.074219 35.921875 L 296.738281 35.921875 C 296.738281 39.574219 296.316406 40.066406 290.839844 40.066406 L 290.839844 32.199219 L 294.699219 32.199219 C 299.6875 32.199219 300.460938 33.042969 301.09375 35.359375 L 301.445312 36.695312 L 302.566406 36.695312 L 302.078125 30.09375 L 281.425781 30.09375 L 281.425781 31.425781 C 285.359375 31.425781 285.992188 32.269531 285.992188 37.257812 L 285.992188 46.246094 C 285.992188 50.808594 285.453125 51.960938 282.351562 52.125 C 279.40625 51.671875 277.382812 50.066406 274.613281 47.019531 L 271.382812 43.507812 C 275.738281 42.734375 278.054688 39.996094 278.054688 36.90625 C 278.054688 33.042969 274.753906 30.09375 268.574219 30.09375 L 256.210938 30.09375 L 256.210938 31.425781 C 260.144531 31.425781 260.777344 32.269531 260.777344 37.257812 L 260.777344 46.246094 C 260.777344 51.234375 260.144531 52.148438 256.210938 52.148438 L 256.210938 53.484375 L 270.1875 53.484375 L 270.1875 52.148438 C 266.257812 52.148438 265.625 51.234375 265.625 46.246094 L 265.625 43.71875 L 266.816406 43.71875 L 274.613281 53.484375 L 303.484375 53.484375 L 303.90625 46.882812 L 302.851562 46.882812 Z M 265.621094 41.539062 L 265.621094 32.199219 L 268.503906 32.199219 C 271.664062 32.199219 273.070312 34.378906 273.070312 36.90625 C 273.070312 39.363281 271.664062 41.542969 268.503906 41.542969 L 265.621094 41.542969 Z M 317.109375 54.394531 C 314.296875 54.394531 311.839844 52.921875 310.785156 52.007812 C 310.433594 52.359375 309.804688 53.414062 309.664062 54.394531 L 308.328125 54.394531 L 308.328125 44.703125 L 309.734375 44.703125 C 310.296875 49.339844 313.527344 52.078125 317.671875 52.078125 C 319.917969 52.078125 321.746094 50.8125 321.746094 48.707031 C 321.746094 46.882812 320.128906 45.476562 317.25 44.140625 L 313.246094 42.246094 C 310.433594 40.910156 308.328125 38.589844 308.328125 35.5 C 308.328125 32.128906 311.488281 29.25 315.84375 29.25 C 318.164062 29.25 320.128906 30.09375 321.324219 31.074219 C 321.675781 30.796875 322.027344 30.023438 322.238281 29.179688 L 323.570312 29.179688 L 323.570312 37.46875 L 322.097656 37.46875 C 321.605469 34.167969 319.777344 31.425781 316.054688 31.425781 C 314.089844 31.425781 312.261719 32.550781 312.261719 34.308594 C 312.261719 36.132812 313.738281 37.117188 317.109375 38.660156 L 320.972656 40.558594 C 324.34375 42.171875 325.675781 44.773438 325.675781 46.882812 C 325.675781 51.304688 321.8125 54.394531 317.109375 54.394531 Z M 338.742188 54.394531 C 335.933594 54.394531 333.472656 52.921875 332.421875 52.007812 C 332.070312 52.359375 331.4375 53.414062 331.296875 54.394531 L 329.960938 54.394531 L 329.960938 44.703125 L 331.367188 44.703125 C 331.929688 49.339844 335.160156 52.078125 339.304688 52.078125 C 341.550781 52.078125 343.378906 50.8125 343.378906 48.707031 C 343.378906 46.882812 341.761719 45.476562 338.882812 44.140625 L 334.878906 42.246094 C 332.070312 40.910156 329.960938 38.589844 329.960938 35.5 C 329.960938 32.128906 333.121094 29.25 337.476562 29.25 C 339.796875 29.25 341.761719 30.09375 342.957031 31.074219 C 343.308594 30.796875 343.660156 30.023438 343.867188 29.179688 L 345.203125 29.179688 L 345.203125 37.46875 L 343.730469 37.46875 C 343.238281 34.167969 341.410156 31.425781 337.6875 31.425781 C 335.722656 31.425781 333.894531 32.550781 333.894531 34.308594 C 333.894531 36.132812 335.371094 37.117188 338.742188 38.660156 L 342.605469 40.558594 C 345.976562 42.171875 347.3125 44.773438 347.3125 46.882812 C 347.3125 51.304688 343.449219 54.394531 338.742188 54.394531 Z M 338.742188 54.394531 " fill-opacity="1" fill-rule="nonzero"/><path fill="#000000" d="M 33.054688 37.800781 C 33.054688 50.105469 40.203125 60.738281 50.574219 65.777344 L 35.746094 25.152344 C 33.945312 29.175781 33.050781 33.394531 33.054688 37.800781 Z M 85.125 36.234375 C 85.125 32.390625 83.746094 29.730469 82.5625 27.660156 C 80.984375 25.097656 79.507812 22.929688 79.507812 20.371094 C 79.507812 17.511719 81.675781 14.851562 84.726562 14.851562 C 84.867188 14.851562 84.996094 14.871094 85.128906 14.878906 C 79.601562 9.8125 72.230469 6.71875 64.140625 6.71875 C 53.277344 6.71875 43.726562 12.289062 38.167969 20.726562 C 38.894531 20.75 39.582031 20.765625 40.167969 20.765625 C 43.417969 20.765625 48.453125 20.371094 48.453125 20.371094 C 50.128906 20.273438 50.324219 22.734375 48.652344 22.933594 C 48.652344 22.933594 46.964844 23.128906 45.09375 23.226562 L 56.414062 56.898438 L 63.214844 36.496094 L 58.371094 23.226562 C 56.699219 23.128906 55.113281 22.929688 55.113281 22.929688 C 53.4375 22.832031 53.632812 20.269531 55.308594 20.371094 C 55.308594 20.371094 60.441406 20.765625 63.496094 20.765625 C 66.75 20.765625 71.78125 20.371094 71.78125 20.371094 C 73.457031 20.269531 73.65625 22.734375 71.980469 22.929688 C 71.980469 22.929688 70.292969 23.128906 68.421875 23.226562 L 79.65625 56.644531 L 82.757812 46.28125 C 84.101562 41.980469 85.125 38.894531 85.125 36.234375 Z M 85.125 36.234375 " fill-opacity="1" fill-rule="nonzero"/><path fill="#000000" d="M 64.683594 40.519531 L 55.359375 67.621094 C 58.222656 68.464844 61.152344 68.886719 64.140625 68.890625 C 67.757812 68.890625 71.230469 68.261719 74.460938 67.125 C 74.375 66.992188 74.300781 66.847656 74.242188 66.699219 Z M 91.414062 22.886719 C 91.550781 23.878906 91.625 24.941406 91.625 26.082031 C 91.625 29.238281 91.035156 32.785156 89.261719 37.21875 L 79.765625 64.671875 C 89.007812 59.28125 95.222656 49.269531 95.222656 37.800781 C 95.222656 32.398438 93.84375 27.316406 91.414062 22.886719 Z M 91.414062 22.886719 " fill-opacity="1" fill-rule="nonzero"/><g clip-path="url(#c2aeb6737a)"><path fill="#000000" d="M 64.140625 1.566406 C 44.160156 1.566406 27.902344 17.820312 27.902344 37.800781 C 27.902344 57.785156 44.160156 74.039062 64.140625 74.039062 C 84.117188 74.039062 100.378906 57.785156 100.378906 37.800781 C 100.375 17.820312 84.117188 1.566406 64.140625 1.566406 Z M 64.140625 72.378906 C 45.074219 72.378906 29.5625 56.867188 29.5625 37.800781 C 29.5625 18.738281 45.074219 3.226562 64.140625 3.226562 C 83.203125 3.226562 98.710938 18.738281 98.710938 37.800781 C 98.710938 56.867188 83.203125 72.378906 64.140625 72.378906 Z M 64.140625 72.378906 " fill-opacity="1" fill-rule="nonzero"/></g></svg>